<svg width="20" height="20" viewBox="0 0 20 20" fill="none" xmlns="http://www.w3.org/2000/svg">
<path d="M10 0C7.34784 0 4.8043 1.05357 2.92893 2.92893C1.05357 4.8043 0 7.34784 0 10C0 12.6522 1.05357 15.1957 2.92893 17.0711C4.8043 18.9464 7.34784 20 10 20C12.0683 20 14.2404 19.3769 15.8106 18.3337C15.8947 18.2777 15.9671 18.2058 16.0234 18.1219C16.0797 18.038 16.119 17.9438 16.139 17.8447C16.1589 17.7457 16.1592 17.6437 16.1397 17.5445C16.1202 17.4453 16.0814 17.351 16.0255 17.2668C15.9695 17.1827 15.8976 17.1103 15.8137 17.054C15.7298 16.9977 15.6356 16.9584 15.5366 16.9384C15.4375 16.9185 15.3355 16.9182 15.2363 16.9377C15.1372 16.9572 15.0428 16.996 14.9587 17.0519C13.6538 17.9212 11.751 18.4615 10 18.4615C8.32647 18.4615 6.69051 17.9653 5.29902 17.0355C3.90753 16.1057 2.82299 14.7842 2.18256 13.2381C1.54212 11.6919 1.37456 9.99061 1.70105 8.34924C2.02754 6.70786 2.83342 5.20016 4.01679 4.01679C5.20016 2.83342 6.70786 2.02754 8.34924 1.70105C9.99061 1.37456 11.6919 1.54212 13.2381 2.18256C14.7842 2.82299 16.1057 3.90753 17.0355 5.29902C17.9653 6.69051 18.4615 8.32647 18.4615 10C18.4615 12.5433 17.4154 13.0769 16.5385 13.0769C15.6615 13.0769 14.6154 12.5433 14.6154 10V6.15385C14.6154 5.94983 14.5343 5.75418 14.3901 5.60992C14.2458 5.46566 14.0502 5.38462 13.8462 5.38462C13.6421 5.38462 13.4465 5.46566 13.3022 5.60992C13.158 5.75418 13.0769 5.94983 13.0769 6.15385V6.56346C12.3866 5.94455 11.5259 5.54788 10.6069 5.42513C9.68796 5.30239 8.75332 5.45926 7.92478 5.8753C7.09623 6.29135 6.41219 6.94728 5.96177 7.75765C5.51136 8.56802 5.31544 9.49526 5.39954 10.4186C5.48365 11.3419 5.84388 12.2185 6.4333 12.9341C7.02273 13.6498 7.81402 14.1713 8.7041 14.4308C9.59418 14.6903 10.5418 14.6757 11.4235 14.389C12.3051 14.1022 13.08 13.5565 13.6471 12.8231C14.224 13.9769 15.2192 14.6154 16.5385 14.6154C18.7058 14.6154 20 12.8904 20 10C19.9972 7.34869 18.9427 4.80678 17.068 2.93202C15.1932 1.05727 12.6513 0.00279983 10 0ZM10 13.0769C9.39144 13.0769 8.79655 12.8965 8.29055 12.5584C7.78456 12.2203 7.39018 11.7397 7.15729 11.1775C6.92441 10.6153 6.86348 9.99659 6.9822 9.39972C7.10092 8.80286 7.39397 8.2546 7.82429 7.82429C8.2546 7.39397 8.80286 7.10092 9.39972 6.9822C9.99659 6.86348 10.6153 6.92441 11.1775 7.15729C11.7397 7.39018 12.2203 7.78456 12.5584 8.29055C12.8965 8.79655 13.0769 9.39144 13.0769 10C13.0769 10.8161 12.7527 11.5987 12.1757 12.1757C11.5987 12.7527 10.8161 13.0769 10 13.0769Z" fill="#6C6F72"/>
</svg>
