<svg width="14" height="14" viewBox="0 0 14 14" fill="none" xmlns="http://www.w3.org/2000/svg">
<path fill-rule="evenodd" clip-rule="evenodd" d="M12.2022 6.20182C12.499 6.13798 12.6094 6.1792 12.6335 6.1908C12.6434 6.21151 12.666 6.27941 12.6504 6.43963C12.6277 6.67224 12.53 7.00139 12.3307 7.41337C11.9349 8.23129 11.2049 9.23982 10.2224 10.2224C9.23981 11.2049 8.23132 11.9349 7.41336 12.3307C7.00138 12.53 6.67223 12.6277 6.43963 12.6504C6.27944 12.666 6.21153 12.6434 6.19079 12.6335C6.17919 12.6094 6.13798 12.499 6.20182 12.2022C6.27914 11.8426 6.48511 11.3586 6.83302 10.7925C7.25449 10.1067 7.85698 9.34447 8.60074 8.60071C9.34446 7.85699 10.1067 7.25446 10.7925 6.83299C11.3586 6.48512 11.8426 6.27914 12.2022 6.20182ZM0.41477 8.76151L5.23817 13.5849C5.61522 13.962 6.12668 14.0319 6.5701 13.9887C7.0195 13.9449 7.50907 13.7782 7.99905 13.5411C8.98502 13.064 10.1134 12.233 11.1732 11.1732C12.233 10.1134 13.064 8.98503 13.5411 7.99906C13.7782 7.50908 13.9449 7.01951 13.9887 6.57011C14.0319 6.12669 13.9619 5.61523 13.5849 5.23817L8.7615 0.414769C8.29502 -0.0517064 7.63067 -0.051219 7.09601 0.0637635C6.53191 0.18508 5.90168 0.472699 5.26503 0.863948C4.47777 1.34776 3.63407 2.01889 2.82647 2.82648C2.01889 3.63404 1.34775 4.47778 0.863945 5.26503C0.4727 5.90168 0.185081 6.53192 0.0637644 7.09602C-0.0512214 7.63067 -0.0517088 8.29503 0.41477 8.76151Z" fill="#0D141C"/>
</svg>
