<svg width="21" height="21" viewBox="0 0 21 21" fill="none" xmlns="http://www.w3.org/2000/svg">
<path d="M13.2222 0C11.9946 0.00110076 10.7847 0.292519 9.69116 0.850461C8.59767 1.4084 7.65162 2.21705 6.93028 3.21038C6.20894 4.20371 5.73275 5.35355 5.54058 6.56603C5.34842 7.77851 5.44574 9.01925 5.82458 10.1869L0.2275 15.7831C0.155296 15.8553 0.0980404 15.9411 0.0590053 16.0356C0.0199701 16.13 -8.01001e-05 16.2312 2.40488e-07 16.3333V20.2222C2.40488e-07 20.4285 0.0819444 20.6263 0.227806 20.7722C0.373668 20.9181 0.571499 21 0.777778 21H4.66667C4.87295 21 5.07078 20.9181 5.21664 20.7722C5.3625 20.6263 5.44444 20.4285 5.44444 20.2222V18.6667H7C7.20628 18.6667 7.40411 18.5847 7.54997 18.4389C7.69583 18.293 7.77778 18.0952 7.77778 17.8889V16.3333H9.33333C9.4355 16.3334 9.53669 16.3134 9.63111 16.2743C9.72552 16.2353 9.81133 16.178 9.88361 16.1058L10.8131 15.1754C11.882 15.5225 13.0135 15.6338 14.1296 15.5016C15.2458 15.3694 16.32 14.9969 17.2783 14.4097C18.2366 13.8225 19.0563 13.0346 19.6809 12.1003C20.3055 11.1659 20.7202 10.1073 20.8965 8.99726C21.0727 7.88725 21.0062 6.75224 20.7017 5.67037C20.3972 4.5885 19.8618 3.58548 19.1324 2.73038C18.4031 1.87527 17.4971 1.18839 16.4768 0.717043C15.4565 0.245692 14.3461 0.00106236 13.2222 0ZM13.2222 14C12.4349 14.0013 11.6545 13.8525 10.9229 13.5615C10.7798 13.4994 10.6213 13.4818 10.4681 13.5109C10.3148 13.54 10.1738 13.6146 10.0635 13.7249L9.01153 14.7778H7C6.79372 14.7778 6.59589 14.8597 6.45003 15.0056C6.30417 15.1514 6.22222 15.3493 6.22222 15.5556V17.1111H4.66667C4.46039 17.1111 4.26256 17.1931 4.1167 17.3389C3.97083 17.4848 3.88889 17.6826 3.88889 17.8889V19.4444H1.55556V16.6551L7.27514 10.9365C7.38542 10.8262 7.45996 10.6852 7.48909 10.5319C7.51822 10.3787 7.50058 10.2202 7.43847 10.0771C6.94662 8.84027 6.86433 7.47832 7.20371 6.19129C7.54308 4.90425 8.28622 3.75996 9.32399 2.92649C10.3618 2.09302 11.6394 1.61429 12.9694 1.56062C14.2993 1.50695 15.6114 1.88116 16.713 2.62831C17.8145 3.37545 18.6475 4.45614 19.0894 5.71164C19.5314 6.96714 19.5591 8.33129 19.1686 9.60372C18.778 10.8761 17.9896 11.9898 16.9193 12.7811C15.8491 13.5724 14.5532 13.9996 13.2222 14ZM16.3333 5.83333C16.3333 6.06408 16.2649 6.28964 16.1367 6.4815C16.0085 6.67336 15.8263 6.82289 15.6131 6.91119C15.3999 6.9995 15.1654 7.0226 14.9391 6.97758C14.7128 6.93257 14.5049 6.82145 14.3417 6.65829C14.1785 6.49513 14.0674 6.28725 14.0224 6.06094C13.9774 5.83463 14.0005 5.60005 14.0888 5.38687C14.1771 5.17369 14.3266 4.99148 14.5185 4.86328C14.7104 4.73509 14.9359 4.66667 15.1667 4.66667C15.4761 4.66667 15.7728 4.78958 15.9916 5.00838C16.2104 5.22717 16.3333 5.52391 16.3333 5.83333Z" fill="#637588"/>
</svg>
