<svg width="20" height="20" viewBox="0 0 20 20" fill="none" xmlns="http://www.w3.org/2000/svg">
<path d="M19.7745 18.6872L14.9653 13.879C16.3592 12.2056 17.0543 10.0592 16.9059 7.88635C16.7576 5.71349 15.7772 3.68148 14.1689 2.21302C12.5605 0.744556 10.4479 -0.0472968 8.27051 0.00218703C6.09316 0.0516709 4.01871 0.938681 2.4787 2.4787C0.938681 4.01871 0.0516709 6.09316 0.00218703 8.27051C-0.0472968 10.4479 0.744556 12.5605 2.21302 14.1689C3.68148 15.7772 5.71349 16.7576 7.88635 16.9059C10.0592 17.0543 12.2056 16.3592 13.879 14.9653L18.6872 19.7745C18.7586 19.8459 18.8433 19.9025 18.9366 19.9411C19.0299 19.9798 19.1299 19.9996 19.2308 19.9996C19.3318 19.9996 19.4318 19.9798 19.525 19.9411C19.6183 19.9025 19.7031 19.8459 19.7745 19.7745C19.8459 19.7031 19.9025 19.6183 19.9411 19.525C19.9798 19.4318 19.9996 19.3318 19.9996 19.2308C19.9996 19.1299 19.9798 19.0299 19.9411 18.9366C19.9025 18.8433 19.8459 18.7586 19.7745 18.6872ZM1.558 8.47346C1.558 7.10571 1.96358 5.76867 2.72346 4.63143C3.48334 3.49419 4.56339 2.60782 5.82702 2.08441C7.09066 1.56099 8.48113 1.42404 9.82259 1.69088C11.1641 1.95771 12.3963 2.61634 13.3634 3.58349C14.3306 4.55063 14.9892 5.78285 15.256 7.12432C15.5229 8.46578 15.3859 9.85625 14.8625 11.1199C14.3391 12.3835 13.4527 13.4636 12.3155 14.2235C11.1782 14.9833 9.8412 15.3889 8.47346 15.3889C6.63999 15.3869 4.88219 14.6576 3.58574 13.3612C2.28928 12.0647 1.56003 10.3069 1.558 8.47346Z" fill="#636388"/>
</svg>
