<svg width="30" height="25" viewBox="0 0 30 25" fill="none" xmlns="http://www.w3.org/2000/svg">
<path d="M27.6923 0H2.30769C1.69565 0 1.10868 0.239447 0.675907 0.665666C0.243131 1.09189 0 1.66996 0 2.27273V22.7273C0 23.33 0.243131 23.9081 0.675907 24.3343C1.10868 24.7606 1.69565 25 2.30769 25H27.6923C28.3043 25 28.8913 24.7606 29.3241 24.3343C29.7569 23.9081 30 23.33 30 22.7273V2.27273C30 1.66996 29.7569 1.09189 29.3241 0.665666C28.8913 0.239447 28.3043 0 27.6923 0ZM27.6923 2.27273V16.8679L23.9322 13.1662C23.7179 12.9551 23.4635 12.7876 23.1835 12.6734C22.9035 12.5591 22.6033 12.5003 22.3002 12.5003C21.9971 12.5003 21.697 12.5591 21.417 12.6734C21.137 12.7876 20.8826 12.9551 20.6683 13.1662L17.7837 16.0071L11.4375 9.7571C11.0048 9.33121 10.418 9.09196 9.80625 9.09196C9.19447 9.09196 8.60773 9.33121 8.175 9.7571L2.30769 15.5355V2.27273H27.6923ZM2.30769 18.75L9.80769 11.3636L21.3462 22.7273H2.30769V18.75ZM27.6923 22.7273H24.6101L19.4178 17.6136L22.3024 14.7727L27.6923 20.0824V22.7273ZM17.3077 8.52273C17.3077 8.1856 17.4092 7.85604 17.5994 7.57573C17.7896 7.29542 18.0599 7.07695 18.3761 6.94793C18.6924 6.81892 19.0404 6.78516 19.3761 6.85093C19.7119 6.9167 20.0202 7.07905 20.2623 7.31743C20.5044 7.55582 20.6692 7.85954 20.736 8.19019C20.8028 8.52084 20.7685 8.86356 20.6375 9.17503C20.5065 9.48649 20.2846 9.75271 20 9.94001C19.7154 10.1273 19.3808 10.2273 19.0385 10.2273C18.5794 10.2273 18.1392 10.0477 17.8146 9.72802C17.49 9.40836 17.3077 8.9748 17.3077 8.52273Z" fill="#636388"/>
</svg>
