<svg width="46" height="46" viewBox="0 0 46 46" fill="none" xmlns="http://www.w3.org/2000/svg">
  <path d="M32.5625 29.9375H30.8514L30.2553 29.3633C32.3418 26.9436 33.5938 23.8145 33.5938 20.375C33.5938 12.5469 27.2344 6.1875 19.4062 6.1875C11.5781 6.1875 5.21875 12.5469 5.21875 20.375C5.21875 28.2031 11.5781 34.5625 19.4062 34.5625C22.8457 34.5625 25.9748 33.3105 28.3945 31.2168L28.9688 31.8125V33.5312L38.7188 43.2451L42.2764 39.6875L32.5625 29.9375ZM19.4062 29.9375C14.125 29.9375 9.84375 25.6562 9.84375 20.375C9.84375 15.0938 14.125 10.8125 19.4062 10.8125C24.6875 10.8125 28.9688 15.0938 28.9688 20.375C28.9688 25.6562 24.6875 29.9375 19.4062 29.9375Z" fill="#4E7397"/>
</svg> 