<svg width="24" height="21" viewBox="0 0 24 21" fill="none" xmlns="http://www.w3.org/2000/svg">
<path fill-rule="evenodd" clip-rule="evenodd" d="M23.6024 6.08804L12.3523 0.0880034C12.132 -0.0293309 11.8677 -0.0293309 11.6473 0.0880034L0.397258 6.08804C0.152744 6.21835 -9.84355e-06 6.47285 -9.84355e-06 6.74992C-9.84355e-06 7.02699 0.152744 7.28149 0.397258 7.4118L2.99977 8.80024V13.3396C2.99899 13.708 3.13458 14.0637 3.3804 14.3381C4.60853 15.7059 7.36011 18 11.9998 18C13.5382 18.0127 15.0651 17.734 16.4999 17.1787V20.25C16.4999 20.6642 16.8356 21 17.2499 21C17.6641 21 17.9999 20.6642 17.9999 20.25V16.454C18.9779 15.8895 19.8617 15.1755 20.6193 14.3381C20.8651 14.0637 21.0007 13.708 20.9999 13.3396V8.80024L23.6024 7.4118C23.8469 7.28149 23.9997 7.02699 23.9997 6.74992C23.9997 6.47285 23.8469 6.21835 23.6024 6.08804ZM11.9998 16.5C7.94324 16.5 5.55729 14.5181 4.49978 13.3396V9.59993L11.6473 13.4118C11.8677 13.5292 12.132 13.5292 12.3523 13.4118L16.4999 11.2003V15.5447C15.3186 16.0959 13.8298 16.5 11.9998 16.5ZM19.4999 13.3359C19.0503 13.8348 18.5473 14.2828 17.9999 14.6718V10.3996L19.4999 9.59993V13.3359ZM17.6249 8.90055L17.6042 8.88837L12.3542 6.08804C11.9898 5.9019 11.5434 6.04223 11.3511 6.40341C11.1587 6.76458 11.2914 7.21328 11.6492 7.4118L16.0311 9.74993L11.9998 11.8996L2.34352 6.74992L11.9998 1.6002L21.6561 6.74992L17.6249 8.90055Z" fill="#0D141C"/>
</svg>
