<svg width="20" height="19" viewBox="0 0 20 19" fill="none" xmlns="http://www.w3.org/2000/svg">
<path fill-rule="evenodd" clip-rule="evenodd" d="M19.2311 3.07753L10.1155 0.0389932C9.95954 -0.0129902 9.79095 -0.0129902 9.63501 0.0389932L0.5194 3.07753C0.209198 3.18094 -2.41481e-05 3.47125 0 3.79823V11.3946C0 11.8141 0.3401 12.1542 0.759634 12.1542C1.17917 12.1542 1.51927 11.8141 1.51927 11.3946V4.85222L4.70878 5.91476C2.94429 8.76543 3.82167 12.5065 6.66959 14.2755C4.96041 14.9459 3.48292 16.1584 2.40234 17.8163C2.2494 18.0436 2.23071 18.3357 2.35344 18.5807C2.47618 18.8256 2.72131 18.9855 2.99495 18.9991C3.2686 19.0127 3.52835 18.8778 3.67473 18.6462C5.10569 16.4509 7.3656 15.1927 9.87524 15.1927C12.3849 15.1927 14.6448 16.4509 16.0758 18.6462C16.3076 18.9908 16.7732 19.0853 17.121 18.8584C17.4689 18.6316 17.57 18.1674 17.3481 17.8163C16.2676 16.1584 14.7844 14.9459 13.0809 14.2755C15.9259 12.5067 16.803 8.76918 15.0417 5.91951L19.2311 4.52368C19.5414 4.42033 19.7507 4.13001 19.7507 3.80298C19.7507 3.47595 19.5414 3.18563 19.2311 3.08228V3.07753ZM14.433 9.11567C14.4336 11.094 13.1579 12.8468 11.2752 13.4544C9.39248 14.0621 7.33276 13.3858 6.17667 11.7804C5.02057 10.1751 5.03213 8.00719 6.20526 6.41422L9.63501 7.55367C9.79095 7.60566 9.95954 7.60566 10.1155 7.55367L13.5452 6.41422C14.1223 7.19664 14.4335 8.14343 14.433 9.11567ZM9.87524 6.0363L3.16198 3.79823L9.87524 1.56016L16.5885 3.79823L9.87524 6.0363Z" fill="#0D141C"/>
</svg>
