<svg width="24" height="24" viewBox="0 0 24 24" fill="none" xmlns="http://www.w3.org/2000/svg">
    <path d="M15.684 0H8.316C1.592 0 0 1.592 0 8.316V15.684C0 22.408 1.592 24 8.316 24H15.684C22.408 24 24 22.408 24 15.684V8.316C24 1.592 22.408 0 15.684 0Z" fill="#4C75A3"/>
    <path d="M18.89 14.8601C18.89 14.8601 20.191 16.1401 20.511 16.7401C20.521 16.7501 20.526 16.7601 20.531 16.7701C20.661 16.9901 20.691 17.1601 20.626 17.2901C20.516 17.5001 20.156 17.6101 20.026 17.6201H17.936C17.776 17.6201 17.431 17.5701 17.016 17.2701C16.696 17.0401 16.381 16.6801 16.076 16.3301C15.616 15.8001 15.211 15.3301 14.801 15.3301C14.741 15.3301 14.681 15.3401 14.626 15.3601C14.291 15.4701 13.866 15.9501 13.866 17.0701C13.866 17.4101 13.601 17.6201 13.421 17.6201H12.506C12.186 17.6201 10.416 17.4801 8.85597 15.8401C6.92597 13.8201 5.17597 9.89008 5.16597 9.86008C5.05597 9.59008 5.28597 9.44008 5.53597 9.44008H7.64597C7.94597 9.44008 8.04597 9.62008 8.11597 9.80008C8.19597 10.0101 8.49597 10.8401 9.03597 11.7701C9.89597 13.2401 10.416 13.7901 10.836 13.7901C10.926 13.7901 11.016 13.7701 11.096 13.7201C11.586 13.4801 11.486 11.7401 11.466 11.3901C11.466 11.3301 11.466 10.3601 11.136 9.99008C10.896 9.71008 10.496 9.61008 10.266 9.57008C10.356 9.45008 10.466 9.26008 10.606 9.14008C10.896 8.87008 11.446 8.83008 11.986 8.83008H12.356C12.946 8.84008 13.136 8.89008 13.396 8.96008C13.926 9.09008 13.936 9.49008 13.886 10.6201C13.876 10.9001 13.856 11.2201 13.856 11.5901C13.856 11.6901 13.846 11.8001 13.846 11.9101C13.826 12.4601 13.806 13.0701 14.166 13.3301C14.226 13.3701 14.296 13.3901 14.366 13.3901C14.496 13.3901 14.886 13.3901 15.916 11.7901C16.436 10.9001 16.846 9.84008 16.876 9.76008C16.926 9.65008 16.996 9.48008 17.086 9.44008C17.156 9.41008 17.236 9.41008 17.306 9.41008H19.686C19.946 9.41008 20.126 9.44008 20.156 9.54008C20.216 9.71008 20.146 10.1301 19.016 11.6401L18.466 12.3401C17.436 13.6701 17.436 13.7501 18.89 14.8601Z" fill="white"/>
</svg> 