<svg width="11" height="20" viewBox="0 0 11 20" fill="none" xmlns="http://www.w3.org/2000/svg">
<path d="M10.5441 14.0711C10.6156 14.1425 10.6724 14.2273 10.7111 14.3207C10.7498 14.4141 10.7697 14.5142 10.7697 14.6153C10.7697 14.7163 10.7498 14.8164 10.7111 14.9098C10.6724 15.0032 10.6156 15.088 10.5441 15.1595L5.92898 19.7746C5.85754 19.8461 5.77271 19.9029 5.67933 19.9416C5.58595 19.9803 5.48586 20.0002 5.38477 20.0002C5.28369 20.0002 5.1836 19.9803 5.09022 19.9416C4.99684 19.9029 4.91201 19.8461 4.84057 19.7746L0.225416 15.1595C0.0810843 15.0151 -1.52078e-09 14.8194 0 14.6153C1.52078e-09 14.4111 0.0810843 14.2154 0.225416 14.0711C0.369748 13.9267 0.565504 13.8456 0.76962 13.8456C0.973736 13.8456 1.16949 13.9267 1.31382 14.0711L5.38477 18.143L9.45572 14.0711C9.52716 13.9995 9.61199 13.9428 9.70537 13.9041C9.79875 13.8654 9.89884 13.8455 9.99993 13.8455C10.101 13.8455 10.2011 13.8654 10.2945 13.9041C10.3879 13.9428 10.4727 13.9995 10.5441 14.0711ZM1.31382 5.92916L5.38477 1.85724L9.45572 5.92916C9.60005 6.07349 9.79581 6.15457 9.99993 6.15457C10.204 6.15457 10.3998 6.07349 10.5441 5.92916C10.6885 5.78482 10.7695 5.58907 10.7695 5.38495C10.7695 5.18083 10.6885 4.98508 10.5441 4.84075L5.92898 0.225594C5.85754 0.154077 5.77271 0.097342 5.67933 0.058633C5.58595 0.0199239 5.48586 0 5.38477 0C5.28369 0 5.1836 0.0199239 5.09022 0.058633C4.99684 0.097342 4.91201 0.154077 4.84057 0.225594L0.225416 4.84075C0.0810843 4.98508 -4.02361e-09 5.18083 0 5.38495C4.02361e-09 5.58907 0.081085 5.78482 0.225417 5.92915C0.369749 6.07349 0.565504 6.15457 0.76962 6.15457C0.973736 6.15457 1.16949 6.07349 1.31382 5.92916Z" fill="#636388"/>
</svg>
