<svg width="23" height="24" viewBox="0 0 23 24" fill="none" xmlns="http://www.w3.org/2000/svg">
<path fill-rule="evenodd" clip-rule="evenodd" d="M22.3807 9.55379L12.7973 0.51191C12.7927 0.507823 12.7883 0.50342 12.7842 0.498733C12.053 -0.166189 10.9362 -0.166189 10.2051 0.498733L10.1919 0.51191L0.619323 9.55379C0.224544 9.9168 -8.16451e-05 10.4286 0 10.9649V22.0397C0 23.0982 0.858121 23.9563 1.91667 23.9563H7.66667C8.72521 23.9563 9.58333 23.0982 9.58333 22.0397V16.2897H13.4167V22.0397C13.4167 23.0982 14.2748 23.9563 15.3333 23.9563H21.0833C22.1419 23.9563 23 23.0982 23 22.0397V10.9649C23.0001 10.4286 22.7755 9.9168 22.3807 9.55379ZM21.0833 22.0397H15.3333V16.2897C15.3333 15.2311 14.4752 14.373 13.4167 14.373H9.58333C8.52479 14.373 7.66667 15.2311 7.66667 16.2897V22.0397H1.91667V10.9649L1.92984 10.953L11.5 1.91467L21.0714 10.9506L21.0845 10.9625L21.0833 22.0397Z" fill="#0D141C"/>
</svg>
