<svg width="24" height="24" viewBox="0 0 24 24" fill="none" xmlns="http://www.w3.org/2000/svg">
    <path d="M17 20H22V18C22 17.2044 21.6839 16.4413 21.1213 15.8787C20.5587 15.3161 19.7956 15 19 15C18.2044 15 17.4413 15.3161 16.8787 15.8787C16.3161 16.4413 16 17.2044 16 18V20H17Z" stroke="#636387" stroke-width="1.5" stroke-linecap="round" stroke-linejoin="round"/>
    <path d="M19 14C20.1046 14 21 13.1046 21 12C21 10.8954 20.1046 10 19 10C17.8954 10 17 10.8954 17 12C17 13.1046 17.8954 14 19 14Z" stroke="#636387" stroke-width="1.5" stroke-linecap="round" stroke-linejoin="round"/>
    <path d="M2 20H8V18C8 17.2044 7.68393 16.4413 7.12132 15.8787C6.55871 15.3161 5.79565 15 5 15C4.20435 15 3.44129 15.3161 2.87868 15.8787C2.31607 16.4413 2 17.2044 2 18V20Z" stroke="#636387" stroke-width="1.5" stroke-linecap="round" stroke-linejoin="round"/>
    <path d="M5 14C6.10457 14 7 13.1046 7 12C7 10.8954 6.10457 10 5 10C3.89543 10 3 10.8954 3 12C3 13.1046 3.89543 14 5 14Z" stroke="#636387" stroke-width="1.5" stroke-linecap="round" stroke-linejoin="round"/>
    <path d="M9 20H15V18C15 17.2044 14.6839 16.4413 14.1213 15.8787C13.5587 15.3161 12.7956 15 12 15C11.2044 15 10.4413 15.3161 9.87868 15.8787C9.31607 16.4413 9 17.2044 9 18V20Z" stroke="#636387" stroke-width="1.5" stroke-linecap="round" stroke-linejoin="round"/>
    <path d="M12 14C13.1046 14 14 13.1046 14 12C14 10.8954 13.1046 10 12 10C10.8954 10 10 10.8954 10 12C10 13.1046 10.8954 14 12 14Z" stroke="#636387" stroke-width="1.5" stroke-linecap="round" stroke-linejoin="round"/>
</svg> 