<?xml version="1.0" encoding="UTF-8"?>
<svg width="32px" height="32px" viewBox="0 0 32 32" version="1.1" xmlns="http://www.w3.org/2000/svg" xmlns:xlink="http://www.w3.org/1999/xlink">
    <g stroke="none" stroke-width="1" fill="none" fill-rule="evenodd">
        <path d="M24,14 C27.3137,14 30,16.6863 30,20 L30,28 L22,28 L22,20 C22,16.6863 24.6863,14 28,14 L24,14 Z M16,4 C19.3137,4 22,6.68629 22,10 C22,13.3137 19.3137,16 16,16 C12.6863,16 10,13.3137 10,10 C10,6.68629 12.6863,4 16,4 Z M8,14 C11.3137,14 14,16.6863 14,20 L14,28 L2,28 L2,20 C2,16.6863 4.68629,14 8,14 Z" fill="#121417"></path>
    </g>
</svg> 