<svg width="24" height="24" viewBox="0 0 24 24" fill="none" xmlns="http://www.w3.org/2000/svg">
    <path d="M12 22C17.5228 22 22 17.5228 22 12C22 6.47715 17.5228 2 12 2C6.47715 2 2 6.47715 2 12C2 17.5228 6.47715 22 12 22Z" stroke="#100E1B" stroke-width="2" stroke-linecap="round" stroke-linejoin="round"/>
    <path d="M12 17H12.01" stroke="#100E1B" stroke-width="2" stroke-linecap="round" stroke-linejoin="round"/>
    <path d="M9.09009 9.00008C9.32519 8.33181 9.78924 7.76132 10.4 7.40712C11.0108 7.05292 11.729 6.94087 12.4273 7.09219C13.1255 7.24351 13.7589 7.64907 14.2152 8.23307C14.6714 8.81706 14.9211 9.54695 14.9201 10.3001C14.9201 12.0001 12.4201 13.0001 12.4201 13.0001" stroke="#100E1B" stroke-width="2" stroke-linecap="round" stroke-linejoin="round"/>
</svg> 