<?xml version="1.0" encoding="UTF-8"?>
<svg width="44px" height="44px" viewBox="0 0 44 44" version="1.1" xmlns="http://www.w3.org/2000/svg" xmlns:xlink="http://www.w3.org/1999/xlink">
    <g stroke="none" stroke-width="1" fill="#3B19E6" fill-rule="evenodd">
        <path d="M22,33 L36.6667,33 C37.9553,33 39,31.9553 39,30.6667 L39,11 C39,9.71134 37.9553,8.66667 36.6667,8.66667 L7.33333,8.66667 C6.04467,8.66667 5,9.71134 5,11 L5,30.6667 C5,31.9553 6.04467,33 7.33333,33 L22,33 Z" stroke="#3B19E6" stroke-width="2" stroke-linecap="round" stroke-linejoin="round"/>
        <path d="M22,33 L22,38.5" stroke="#3B19E6" stroke-width="2" stroke-linecap="round" stroke-linejoin="round"/>
        <path d="M16.5,38.5 L27.5,38.5" stroke="#3B19E6" stroke-width="2" stroke-linecap="round" stroke-linejoin="round"/>
        <path d="M22,5.5 L22,8.66667" stroke="#3B19E6" stroke-width="2" stroke-linecap="round" stroke-linejoin="round"/>
        <path d="M12.8333,20.1667 L13.75,19.25 L21.0833,26.5833" stroke="#3B19E6" stroke-width="2" stroke-linecap="round" stroke-linejoin="round"/>
        <path d="M31.1667,15.5833 L23.8333,22.9167" stroke="#3B19E6" stroke-width="2" stroke-linecap="round" stroke-linejoin="round"/>
    </g>
</svg> 