<svg width="20" height="20" viewBox="0 0 20 20" fill="none" xmlns="http://www.w3.org/2000/svg">
<path fill-rule="evenodd" clip-rule="evenodd" d="M19.7747 18.6875L14.9655 13.8792C17.8612 10.4027 17.5103 5.2635 14.169 2.21285C10.8277 -0.837794 5.67783 -0.720756 2.47854 2.47854C-0.720756 5.67783 -0.837794 10.8277 2.21285 14.169C5.2635 17.5103 10.4027 17.8612 13.8792 14.9655L18.6875 19.7747C18.9877 20.075 19.4745 20.075 19.7747 19.7747C20.075 19.4745 20.075 18.9877 19.7747 18.6875ZM1.55782 8.47345C1.55782 4.65405 4.65405 1.55782 8.47345 1.55782C12.2928 1.55782 15.3891 4.65405 15.3891 8.47345C15.3891 12.2928 12.2928 15.3891 8.47345 15.3891C4.65581 15.3848 1.56205 12.2911 1.55782 8.47345Z" fill="#636387"/>
</svg>
