<svg width="44" height="44" viewBox="0 0 44 44" fill="none" xmlns="http://www.w3.org/2000/svg">
  <path d="M36 22C36 29.732 29.732 36 22 36C14.268 36 8 29.732 8 22C8 14.268 14.268 8 22 8" stroke="#3B19E6" stroke-width="2" stroke-linecap="round" stroke-linejoin="round"/>
  <path d="M26 18C26 20.2091 24.2091 22 22 22C19.7909 22 18 20.2091 18 18C18 15.7909 19.7909 14 22 14C24.2091 14 26 15.7909 26 18Z" stroke="#3B19E6" stroke-width="2" stroke-linecap="round" stroke-linejoin="round"/>
  <path d="M32 12C32 14.2091 30.2091 16 28 16C25.7909 16 24 14.2091 24 12C24 9.79086 25.7909 8 28 8C30.2091 8 32 9.79086 32 12Z" stroke="#3B19E6" stroke-width="2" stroke-linecap="round" stroke-linejoin="round"/>
  <path d="M30 24L32 32" stroke="#3B19E6" stroke-width="2" stroke-linecap="round" stroke-linejoin="round"/>
  <path d="M14 24L12 32" stroke="#3B19E6" stroke-width="2" stroke-linecap="round" stroke-linejoin="round"/>
</svg> 