<svg width="39" height="33" viewBox="0 0 39 33" fill="none" xmlns="http://www.w3.org/2000/svg">
<path d="M36 0H3C2.20435 0 1.44129 0.31607 0.87868 0.87868C0.31607 1.44129 0 2.20435 0 3V30C0 30.7956 0.31607 31.5587 0.87868 32.1213C1.44129 32.6839 2.20435 33 3 33H36C36.7957 33 37.5587 32.6839 38.1213 32.1213C38.6839 31.5587 39 30.7956 39 30V3C39 2.20435 38.6839 1.44129 38.1213 0.87868C37.5587 0.31607 36.7957 0 36 0ZM36 3V22.2656L31.1119 17.3794C30.8333 17.1007 30.5025 16.8797 30.1385 16.7289C29.7745 16.5781 29.3843 16.5005 28.9903 16.5005C28.5963 16.5005 28.2061 16.5781 27.8421 16.7289C27.4781 16.8797 27.1473 17.1007 26.8688 17.3794L23.1188 21.1294L14.8688 12.8794C14.3062 12.3172 13.5434 12.0014 12.7481 12.0014C11.9528 12.0014 11.1901 12.3172 10.6275 12.8794L3 20.5069V3H36ZM3 24.75L12.75 15L27.75 30H3V24.75ZM36 30H31.9931L25.2431 23.25L28.9931 19.5L36 26.5088V30ZM22.5 11.25C22.5 10.805 22.632 10.37 22.8792 9.99997C23.1264 9.62996 23.4778 9.34157 23.889 9.17127C24.3001 9.00097 24.7525 8.95642 25.189 9.04323C25.6254 9.13005 26.0263 9.34434 26.341 9.65901C26.6557 9.97368 26.87 10.3746 26.9568 10.811C27.0436 11.2475 26.999 11.6999 26.8287 12.111C26.6584 12.5222 26.37 12.8736 26 13.1208C25.63 13.368 25.195 13.5 24.75 13.5C24.1533 13.5 23.581 13.2629 23.159 12.841C22.7371 12.419 22.5 11.8467 22.5 11.25Z" fill="#636388"/>
</svg>
